<?xml version="1.0" standalone="no"?>
<!DOCTYPE svg PUBLIC "-//W3C//DTD SVG 20010904//EN"
 "http://www.w3.org/TR/2001/REC-SVG-20010904/DTD/svg10.dtd">
<svg version="1.0" xmlns="http://www.w3.org/2000/svg"
 width="512.000000pt" height="512.000000pt" viewBox="0 0 512.000000 512.000000"
 preserveAspectRatio="xMidYMid meet">
<metadata>
Created by potrace 1.11, written by Peter Selinger 2001-2013
</metadata>
<g transform="translate(0.000000,512.000000) scale(0.100000,-0.100000)"
fill="#000000" stroke="none">
<path d="M2230 4779 c-112 -9 -219 -31 -419 -85 -177 -49 -315 -127 -431 -244
-74 -75 -97 -108 -179 -256 -101 -179 -145 -249 -223 -354 -41 -54 -46 -65
-32 -70 13 -5 6 -15 -32 -47 -27 -22 -71 -52 -99 -66 -119 -60 -133 -118 -89
-363 31 -169 19 -300 -38 -419 -20 -44 -28 -75 -28 -115 0 -65 1 -67 62 -114
52 -39 58 -33 28 32 -10 23 -16 42 -12 42 11 0 69 -92 88 -140 22 -55 13 -177
-22 -277 -14 -41 -28 -97 -31 -126 -4 -49 -3 -53 22 -64 23 -10 31 -10 49 2
26 19 45 19 67 -1 15 -14 19 -13 41 9 23 23 32 25 127 25 95 0 104 -2 132 -25
23 -19 33 -23 42 -14 28 28 127 1 127 -35 0 -13 4 -13 30 1 45 23 87 19 106
-10 13 -20 20 -23 34 -15 32 17 68 11 88 -15 17 -22 22 -23 49 -13 39 15 81 3
95 -27 10 -22 12 -23 34 -9 28 19 57 11 83 -22 14 -18 26 -24 40 -19 11 3 29
1 41 -5 19 -10 20 -8 20 72 0 161 31 272 92 336 l32 32 -26 0 c-15 0 -39 -5
-55 -11 l-28 -10 33 33 32 33 88 -4 c238 -10 234 -10 398 51 83 30 175 59 205
63 159 23 310 4 429 -56 104 -51 183 -79 229 -80 l46 -1 -52 -10 c-49 -9 -52
-11 -42 -30 19 -34 3 -30 -22 7 -32 46 -44 45 -18 -2 l21 -38 -23 26 c-13 15
-32 36 -41 48 -24 29 -45 28 -24 -1 40 -57 33 -58 -18 -3 -30 33 -55 56 -56
52 0 -4 9 -27 21 -50 l20 -42 -28 31 c-15 17 -40 45 -55 63 -14 17 -32 31 -38
31 -7 0 6 -20 28 -44 22 -23 43 -52 46 -64 11 -34 172 -118 241 -125 16 -2 49
-15 72 -30 54 -34 73 -35 42 -1 l-24 27 46 -27 c61 -35 66 -33 21 11 -20 20
-28 29 -17 20 31 -24 116 -60 123 -51 4 3 1 9 -7 12 -7 2 -28 18 -45 34 l-31
29 35 -20 c34 -19 120 -39 120 -28 0 3 -23 18 -50 33 -69 37 -58 40 14 4 58
-30 119 -39 131 -20 3 5 23 14 45 20 87 23 230 142 314 260 31 44 89 139 98
162 11 27 -14 22 -42 -7 -13 -14 -30 -23 -36 -21 -7 3 -23 -6 -36 -19 -28 -30
-38 -31 -38 -4 0 20 -19 8 -127 -81 -21 -17 -23 -11 -8 30 8 22 11 40 7 40 -5
0 -25 -18 -47 -40 -34 -35 -105 -74 -90 -50 4 6 13 10 22 10 8 0 45 29 82 65
45 43 71 61 77 55 7 -7 19 5 38 37 22 38 26 43 23 21 -6 -39 9 -25 43 40 17
31 28 46 24 32 -4 -14 -13 -38 -21 -53 -15 -29 -10 -49 7 -31 20 21 80 129 80
146 0 10 5 18 10 18 6 0 10 -1 10 -2 0 -11 -45 -120 -61 -150 -21 -39 -16 -48
13 -25 25 18 60 92 93 194 17 51 34 93 39 93 13 0 -15 -94 -70 -230 -14 -33
-12 -33 35 19 54 60 64 86 89 229 37 212 11 464 -67 647 -23 52 -41 97 -41
101 0 3 -21 40 -47 82 -26 42 -61 100 -77 127 -97 159 -266 324 -436 427 -127
76 -160 93 -316 166 -261 122 -403 168 -629 202 -271 42 -369 47 -595 29z
m407 -79 c37 -9 50 -16 46 -26 -3 -9 2 -14 12 -14 10 0 47 -15 82 -32 55 -28
61 -34 41 -39 -22 -5 -22 -6 10 -22 19 -11 32 -25 32 -37 0 -11 18 -31 43 -49
24 -16 55 -45 69 -63 l25 -33 -21 -18 c-15 -13 -17 -20 -8 -23 49 -21 112
-108 112 -155 0 -11 9 -32 20 -46 11 -14 20 -40 20 -57 0 -25 9 -39 44 -68 24
-21 49 -51 54 -68 13 -35 3 -39 -23 -10 -28 31 -35 24 -35 -33 0 -41 -5 -58
-20 -72 -11 -10 -22 -33 -26 -51 -3 -19 -10 -37 -15 -40 -15 -9 -10 20 11 61
11 22 20 56 20 78 0 37 -30 109 -50 122 -13 8 -13 61 0 85 8 15 6 21 -11 31
-18 9 -20 17 -15 47 5 35 2 40 -59 98 -36 34 -65 66 -65 72 0 6 8 18 17 28 16
15 16 17 -3 31 -41 30 -96 88 -105 110 -5 13 -25 31 -44 40 -20 9 -34 22 -31
29 5 13 -19 24 -108 49 -53 15 -57 17 -40 30 18 14 18 14 -2 15 -35 0 -124 30
-124 41 0 13 68 7 147 -11z m-292 -360 c-3 -5 -27 -22 -53 -37 -26 -15 -63
-38 -82 -52 l-35 -25 25 28 c14 15 52 43 85 62 66 37 69 38 60 24z m-105 -18
c-13 -9 -46 -36 -74 -59 -47 -41 -73 -51 -46 -18 14 17 129 95 139 94 3 0 -5
-8 -19 -17z m-100 -32 c-47 -41 -63 -49 -54 -27 4 12 82 67 94 67 3 0 -15 -18
-40 -40z m676 -109 c-3 -5 -26 -14 -52 -20 -165 -42 -375 -207 -464 -365 -34
-60 -39 -66 -34 -36 9 51 97 182 168 248 71 66 161 122 243 151 78 27 149 39
139 22z m79 -30 c-11 -5 -45 -11 -75 -14 l-55 -6 50 13 c28 8 61 14 75 14 22
1 23 0 5 -7z m-437 -288 c-38 -53 -59 -101 -82 -183 -16 -57 -36 -96 -36 -72
0 33 35 162 57 209 22 47 79 110 90 99 2 -2 -11 -26 -29 -53z m-1328 -58 c0
-11 -14 7 -31 40 -7 13 -3 12 10 -5 11 -14 21 -29 21 -35z m318 -67 c-40 -40
-74 -72 -76 -71 -20 9 112 139 146 143 1 0 -30 -33 -70 -72z m92 32 c-25 -22
-53 -45 -64 -51 -38 -23 11 32 56 62 59 39 61 36 8 -11z m85 20 c-28 -12 -37
-12 -30 0 3 6 16 10 28 9 21 0 21 -1 2 -9z m433 -37 c51 -57 37 -62 -20 -8
-29 28 -55 52 -58 54 -3 2 6 0 20 -3 14 -4 40 -24 58 -43z m74 -42 c35 -56 37
-88 3 -46 -14 17 -25 34 -25 38 0 5 -11 23 -25 41 -14 18 -25 37 -25 41 0 15
43 -30 72 -74z m182 42 c-11 -27 -16 -78 -18 -173 -2 -74 -1 -109 1 -77 5 78
23 63 24 -21 l1 -67 14 44 c17 56 28 67 19 19 -9 -46 19 -207 46 -266 10 -23
19 -50 19 -59 0 -8 5 -33 12 -55 8 -26 14 -35 20 -26 4 7 6 -7 3 -32 -4 -28 0
-62 10 -90 11 -31 14 -36 11 -15 -2 17 -7 48 -10 70 -7 47 -2 35 39 -98 15
-48 32 -90 38 -94 7 -4 8 0 2 13 -4 10 -12 37 -17 59 -22 96 -32 133 -44 175
-7 25 -16 56 -19 70 -9 39 19 -20 54 -115 16 -44 41 -111 56 -150 26 -72 82
-145 111 -145 15 0 14 3 -1 28 l-18 27 33 -30 c18 -16 31 -23 28 -15 -21 61
-20 62 17 21 23 -25 46 -41 60 -41 22 0 21 2 -12 37 -18 21 -36 48 -39 60 -4
13 -10 20 -16 17 -14 -9 -40 17 -59 61 -17 39 -52 185 -45 192 1 2 17 -39 35
-89 27 -78 77 -188 56 -123 -21 64 -45 141 -45 145 0 3 30 -55 66 -128 40 -81
75 -139 90 -149 35 -22 42 -8 12 25 -21 22 -108 200 -108 221 0 3 23 -32 50
-79 62 -104 116 -162 130 -140 5 8 10 25 10 38 0 12 7 25 15 28 8 3 17 14 20
24 3 11 15 22 27 26 18 5 20 12 14 50 -6 45 6 66 27 45 6 -6 14 -11 18 -11 11
0 28 83 22 111 -8 40 12 69 48 69 29 0 89 45 89 67 0 4 13 21 29 36 28 28 51
91 51 142 0 20 -6 27 -30 32 -16 3 -30 10 -30 15 0 6 -11 7 -25 4 -28 -7 -65
8 -65 26 0 6 7 5 18 -5 11 -10 27 -13 46 -10 17 4 31 1 36 -6 4 -7 31 -14 61
-16 89 -5 86 -4 62 -23 -36 -27 -73 -84 -73 -110 0 -13 -13 -37 -30 -54 -16
-16 -30 -33 -30 -37 0 -19 -63 -90 -83 -93 -15 -2 -23 -12 -28 -37 -4 -18 -13
-37 -19 -41 -10 -6 -11 -27 -7 -77 l7 -68 -25 30 -25 30 0 -48 c0 -33 -5 -49
-15 -53 -8 -4 -15 -15 -15 -26 0 -11 -8 -22 -20 -25 -14 -4 -20 -14 -20 -33 0
-16 -3 -35 -6 -43 -4 -10 7 -18 38 -26 24 -7 50 -15 58 -18 8 -4 2 11 -14 32
l-29 38 52 -41 c65 -52 87 -55 40 -6 l-34 37 48 -37 c44 -33 67 -44 67 -31 0
2 -19 22 -42 44 -24 22 -51 54 -61 73 l-18 33 23 -27 c28 -33 147 -118 165
-118 7 0 13 5 13 10 0 6 -4 10 -9 10 -11 0 -101 93 -115 118 -5 9 17 -6 50
-34 70 -60 113 -88 122 -79 4 3 2 9 -4 13 -33 22 -54 43 -95 92 -70 85 -69 90
4 20 37 -35 83 -73 104 -84 36 -21 55 -46 34 -46 -6 0 -34 -16 -62 -35 -28
-19 -67 -37 -87 -40 -20 -4 -41 -8 -47 -9 -5 -1 28 -17 75 -35 57 -22 104 -33
147 -34 66 -2 69 -7 14 -26 -77 -26 -177 -3 -349 81 -94 46 -111 51 -210 60
-59 5 -136 16 -171 24 -35 8 -65 13 -67 11 -5 -5 134 -67 150 -67 7 0 20 -6
30 -13 16 -12 10 -13 -41 -7 -59 7 -191 60 -264 106 -68 43 -96 106 -118 274
-9 73 -31 164 -70 300 -10 36 -27 94 -36 130 -10 36 -24 79 -31 97 -8 17 -13
51 -13 75 l1 43 7 -35 c4 -19 12 -44 19 -55 10 -17 11 -12 12 36 0 56 21 142
46 192 21 40 27 33 8 -10z m738 -39 c-1 -25 -9 -61 -17 -81 -15 -35 -15 -36
20 -74 19 -22 35 -49 35 -60 0 -20 -1 -21 -22 -5 -38 27 -70 38 -125 44 -48 4
-53 2 -63 -19 -6 -13 -23 -32 -37 -43 l-25 -18 16 30 c19 36 52 62 81 62 27 0
89 65 104 109 6 19 11 48 11 66 0 31 9 50 18 40 3 -3 4 -25 4 -51z m-1982 21
c8 -8 19 -14 24 -14 11 -1 21 -51 10 -51 -3 0 -26 21 -50 46 -35 36 -40 44
-22 39 13 -4 30 -13 38 -20z m1099 -13 c23 -34 40 -89 23 -78 -6 4 -17 25 -23
46 -7 22 -16 40 -21 40 -4 0 -8 5 -8 10 0 16 7 12 29 -18z m-395 -123 c115
-40 157 -61 206 -105 57 -51 73 -82 125 -239 67 -200 68 -219 11 -331 -58
-116 -92 -142 -194 -151 -109 -9 -264 38 -331 100 l-35 32 28 -34 c32 -40 26
-54 -10 -20 -28 26 -58 78 -50 86 2 3 -3 14 -13 25 -11 11 -21 43 -25 76 -8
62 -31 107 -41 80 -4 -9 -6 -22 -4 -29 3 -26 -1 -40 -10 -35 -13 8 -8 79 6 83
7 3 -4 25 -28 56 -21 29 -39 58 -39 66 0 9 -8 11 -26 7 -20 -5 -27 -3 -31 13
-6 25 -39 37 -58 21 -10 -8 -17 -6 -29 11 -19 28 -8 50 11 23 8 -10 21 -18 29
-16 9 2 28 -5 42 -14 15 -10 35 -19 45 -19 10 -1 25 -11 33 -23 23 -34 34 -26
35 26 l2 47 7 -40 7 -40 3 55 3 55 6 -55 c10 -91 20 -41 20 90 l-1 122 -19
-29 c-10 -15 -19 -39 -19 -53 0 -23 -19 -67 -20 -46 0 6 -7 1 -15 -10 -14 -18
-15 -16 -9 21 4 22 11 42 15 43 5 2 9 13 9 23 0 56 49 106 133 136 85 29 125
28 231 -8z m2246 -10 c15 -28 5 -23 -15 7 -9 15 -12 23 -6 20 6 -4 16 -16 21
-27z m-3018 -42 c14 -13 42 -59 63 -102 48 -103 46 -153 -9 -237 -21 -32 -49
-64 -63 -73 -41 -28 -56 -78 -65 -235 -13 -204 -12 -236 14 -281 30 -54 19
-56 -21 -3 -37 48 -44 95 -29 181 l8 41 -56 18 c-70 22 -79 41 -64 135 13 88
13 188 -2 319 -6 58 -9 116 -5 130 9 38 142 129 188 130 9 0 27 -11 41 -23z
m377 -74 c-6 -21 -12 -55 -16 -75 -7 -47 -23 -50 -23 -5 0 29 33 117 43 117 3
0 1 -17 -4 -37z m-102 -55 c-2 -13 -4 -5 -4 17 -1 22 1 32 4 23 2 -10 2 -28 0
-40z m1439 17 c7 -27 15 -30 45 -15 10 6 19 7 19 2 0 -7 -14 -16 -62 -40 -5
-2 -8 9 -9 25 0 15 -3 21 -6 13 -3 -8 -17 -39 -30 -67 -30 -65 -49 -80 -39
-32 l6 34 -19 -31 c-25 -41 -38 -49 -58 -32 -12 10 -17 10 -20 1 -7 -20 -44
-63 -54 -63 -6 0 -2 12 9 28 10 15 21 35 25 44 3 9 18 18 33 20 22 2 33 14 53
53 17 32 27 43 29 32 2 -9 6 -17 9 -17 9 0 42 45 43 58 0 22 19 13 26 -13z
m1375 3 c39 -73 74 -348 52 -406 -6 -16 -9 3 -9 65 -1 49 -8 116 -17 149 -10
34 -21 88 -26 120 -4 33 -12 67 -16 77 -10 25 2 21 16 -5z m-538 -62 c3 -30 1
-43 -4 -35 -5 8 -9 29 -9 48 l0 34 -40 -7 c-51 -8 -53 7 -2 20 44 11 47 7 55
-60z m-2296 42 c-3 -8 -6 -5 -6 6 -1 11 2 17 5 13 3 -3 4 -12 1 -19z m-62 -98
c-3 -5 -14 -10 -23 -9 -14 0 -13 2 3 9 27 11 27 11 20 0z m1009 -45 c30 -63
33 -84 12 -66 -8 6 -19 31 -25 54 -7 23 -15 48 -17 55 -3 6 -4 12 -1 12 3 0
16 -25 31 -55z m1421 -9 c47 -28 65 -51 65 -85 0 -32 99 -103 160 -115 14 -3
5 -3 -20 -2 -53 4 -142 59 -177 110 -12 19 -29 36 -37 39 -20 8 -42 45 -50 82
-5 23 -4 26 4 13 5 -9 30 -28 55 -42z m-1359 -44 c-11 -10 -25 13 -31 48 l-6
35 21 -38 c12 -22 19 -42 16 -45z m-82 -21 c-7 -7 -12 3 -18 34 l-6 30 14 -30
c8 -16 12 -32 10 -34z m-1064 -14 c0 -7 -9 -23 -21 -35 l-20 -22 59 -73 c33
-39 63 -87 67 -104 3 -18 11 -31 17 -30 16 3 147 -253 148 -289 0 -57 -34
-119 -112 -205 -14 -16 -35 -29 -45 -29 -13 0 -15 2 -5 9 8 5 15 33 17 72 1
35 10 82 19 103 9 22 15 41 13 42 -10 10 -45 -47 -56 -91 -7 -27 -15 -53 -19
-57 -10 -10 1 103 11 120 10 16 7 15 -31 -4 -18 -8 -32 -21 -32 -29 0 -7 -13
-38 -29 -68 -35 -67 -29 -72 -110 101 l-53 113 13 72 c7 40 13 111 13 158 1
68 5 91 19 106 9 11 17 25 17 31 0 10 108 121 118 122 1 0 2 -6 2 -13z m2988
-187 c-6 -85 -52 -236 -84 -276 -8 -11 -4 8 10 47 31 86 56 209 61 301 4 94 6
102 14 53 3 -22 3 -78 -1 -125z m-1539 98 c9 -24 26 -72 35 -108 10 -36 29
-91 42 -122 27 -64 30 -92 12 -86 -16 5 -57 113 -57 150 -1 16 -14 68 -30 118
-31 96 -32 117 -2 48z m-1309 -39 c0 -18 -22 5 -43 43 l-19 33 31 -33 c17 -18
31 -37 31 -43z m-10 -32 c0 -16 -24 9 -43 45 l-18 33 30 -35 c17 -19 31 -38
31 -43z m3129 51 c0 -7 -4 -22 -9 -33 -7 -17 -9 -15 -9 13 -1 17 4 32 9 32 6
0 10 -6 9 -12z m-3161 -64 c-4 -3 -12 5 -18 18 -12 22 -12 22 6 6 10 -10 15
-20 12 -24z m202 -10 c0 -8 -4 -12 -10 -9 -5 3 -10 10 -10 16 0 5 5 9 10 9 6
0 10 -7 10 -16z m860 -51 c0 -34 -19 -85 -29 -78 -4 2 -2 33 3 69 10 66 26 71
26 9z m29 -6 c1 -16 -3 -26 -9 -22 -5 3 -10 25 -9 48 0 33 2 38 9 22 5 -11 9
-33 9 -48z m-104 -54 c-14 -26 -24 -41 -21 -32 2 10 10 37 16 60 19 70 23 77
27 47 3 -16 -6 -46 -22 -75z m-875 72 c8 -9 8 -15 2 -15 -7 0 -7 -11 0 -36 5
-20 8 -38 6 -40 -3 -2 -20 13 -39 32 -30 32 -31 35 -7 19 l27 -17 -9 34 c-12
40 -12 38 -1 38 5 0 14 -7 21 -15z m1018 -20 c-3 -3 -9 2 -12 12 -6 14 -5 15
5 6 7 -7 10 -15 7 -18z m542 -40 c0 -7 9 -20 20 -30 11 -10 20 -23 20 -29 -1
-16 -67 61 -73 85 -5 20 -5 20 14 3 10 -9 19 -22 19 -29z m-1501 -14 c1 -10
-3 -9 -13 4 -8 11 -11 26 -8 34 4 12 7 11 13 -5 4 -10 8 -25 8 -33z m171 -63
c1 -20 -20 -4 -46 34 -48 71 -48 75 -1 23 26 -27 46 -53 47 -57z m1810 -70 c0
-18 -22 -4 -89 58 -39 36 -71 72 -71 81 0 8 36 -19 80 -59 44 -40 80 -76 80
-80z m-1867 81 c21 -28 36 -53 33 -56 -7 -7 -86 79 -86 95 0 22 15 11 53 -39z
m1417 -43 c0 -16 -31 17 -46 48 l-15 31 30 -35 c17 -19 31 -39 31 -44z m1099
-4 c-15 -48 -56 -129 -69 -137 -11 -7 8 49 44 125 14 30 26 64 27 75 2 17 2
17 6 -3 2 -12 -1 -39 -8 -60z m-874 48 c3 -6 -1 -7 -9 -4 -18 7 -21 14 -7 14
6 0 13 -4 16 -10z m-975 -46 c-12 -30 -48 -74 -61 -74 -5 0 -6 7 -2 16 5 14 2
16 -20 10 -32 -8 -79 2 -71 15 3 5 12 9 20 9 8 0 33 12 57 26 l42 27 -24 -27
c-35 -38 -1 -35 36 3 15 16 29 28 31 26 1 -1 -2 -15 -8 -31z m1215 -12 c-7 -7
-45 29 -45 41 0 6 11 0 25 -13 14 -13 23 -26 20 -28z m-1865 -13 c0 -17 -15
-8 -40 24 l-25 32 33 -23 c17 -13 32 -28 32 -33z m-64 -37 c-3 -2 -13 1 -23 7
-17 9 -19 7 -15 -22 l5 -32 -23 30 c-13 17 -35 43 -49 60 l-26 30 27 -24 c32
-28 54 -21 37 12 -7 14 3 8 30 -17 22 -22 39 -41 37 -44z m-600 31 c-11 -11
-17 4 -9 23 7 18 8 18 11 1 2 -10 1 -21 -2 -24z m1357 17 c-5 -19 -33 -49 -33
-36 0 7 31 56 35 56 2 0 1 -9 -2 -20z m1315 -13 c29 -31 36 -75 19 -116 l-14
-34 -8 67 c-4 46 -13 74 -26 87 -13 13 -15 19 -6 19 8 0 23 -10 35 -23z
m-2739 -8 c37 -13 59 -45 42 -62 -6 -6 -12 -9 -13 -6 -2 2 -19 21 -37 42 -38
41 -38 42 8 26z m1448 -11 c-3 -8 -6 -5 -6 6 -1 11 2 17 5 13 3 -3 4 -12 1
-19z m-657 -98 c0 -20 -2 -22 -10 -10 -5 8 -10 26 -10 40 0 20 2 22 10 10 5
-8 10 -26 10 -40z m241 -7 c2 -24 2 -25 6 -5 3 17 11 22 34 22 33 0 34 -2 17
-33 l-12 -22 -7 25 c-6 24 -7 24 -14 5 -5 -11 -17 -26 -28 -34 -11 -8 -16 -19
-12 -30 3 -9 -10 0 -29 18 -53 51 -49 81 11 81 29 0 33 -3 34 -27z m-281 -55
c0 -10 -4 -18 -10 -18 -5 0 -10 10 -10 23 0 12 -3 33 -5 47 -5 22 -3 21 9 -5
9 -16 15 -38 16 -47z m-50 11 c4 -22 4 -53 1 -68 -7 -24 -8 -22 -16 19 l-8 45
-7 -42 c-9 -63 -20 -64 -20 -2 0 34 6 63 16 77 20 28 24 24 34 -29z m740 47
c0 -11 -19 -15 -25 -6 -3 5 1 10 9 10 9 0 16 -2 16 -4z m280 -7 c27 -6 50 -15
50 -20 0 -14 -31 -9 -75 11 -47 22 -43 24 25 9z m-1080 -27 c0 -33 -30 -119
-45 -132 -19 -16 -19 -15 5 48 11 29 20 63 20 77 0 14 5 25 10 25 6 0 10 -8
10 -18z m1105 -23 c14 -14 -64 -9 -110 6 -40 14 -40 14 30 9 39 -3 74 -10 80
-15z m-1650 -81 c4 -42 3 -47 -4 -23 -15 50 -22 113 -10 93 5 -10 12 -42 14
-70z m1620 51 c14 -13 -43 -10 -90 5 l-40 13 60 -5 c33 -2 64 -8 70 -13z
m-1581 -88 c-8 -9 -15 8 -19 45 l-5 39 14 -40 c7 -22 12 -42 10 -44z m1501 63
c57 -10 69 -15 54 -25 -8 -4 -25 -6 -39 -3 -20 5 -22 3 -10 -6 12 -10 10 -11
-10 -6 -14 3 -31 6 -39 6 -8 0 -11 3 -7 7 4 4 -8 15 -26 25 l-33 18 40 -6 c22
-3 54 -8 70 -10z m1754 -6 c-6 -13 -26 -41 -44 -63 -17 -22 -35 -49 -38 -59
-4 -10 -10 -16 -14 -12 -8 8 90 156 104 156 2 0 -2 -10 -8 -22z m-2809 -11 c0
-7 -7 -22 -15 -33 -13 -17 -13 -16 -3 14 13 34 18 40 18 19z m445 -23 c-22
-52 -19 -54 12 -6 33 50 47 54 37 10 -4 -18 -13 -62 -19 -98 l-12 -65 -8 45
-8 45 -18 -40 -18 -40 0 46 c-1 46 13 103 32 127 17 21 18 13 2 -24z m2065 26
c12 -8 12 -10 -3 -16 -10 -3 -21 -4 -24 0 -3 3 -12 1 -18 -4 -7 -6 -20 -7 -30
-4 -16 6 -16 8 -1 16 9 5 20 7 25 3 5 -3 12 -1 16 5 8 12 16 12 35 0z m-2110
-50 l-7 -45 -2 41 c0 22 2 44 6 47 10 11 11 5 3 -43z m-820 25 c0 -8 -2 -15
-4 -15 -2 0 -6 7 -10 15 -3 8 -1 15 4 15 6 0 10 -7 10 -15z m200 -6 c0 -6 -4
-7 -10 -4 -5 3 -10 11 -10 16 0 6 5 7 10 4 6 -3 10 -11 10 -16z m412 -31 c-23
-37 -69 -84 -76 -77 -3 3 16 31 41 62 48 62 69 70 35 15z m-430 -13 c-6 -12
-11 -14 -16 -6 -4 6 -2 11 4 11 8 0 7 7 -1 23 -11 21 -10 21 6 6 13 -12 15
-22 7 -34z m751 -53 c-6 -100 -23 -116 -23 -23 0 51 17 128 26 119 1 -2 0 -45
-3 -96z m2167 90 c0 -11 -69 -92 -79 -92 -4 0 -7 8 -7 19 0 10 6 17 12 14 7
-2 25 12 41 31 30 38 33 41 33 28z m-290 -6 c0 -2 -12 -12 -27 -21 l-28 -18
19 21 c17 20 36 29 36 18z m-1795 -56 c21 23 83 55 92 46 3 -2 -5 -9 -16 -16
-12 -6 -33 -34 -47 -63 -23 -45 -28 -49 -35 -32 -6 16 -8 13 -8 -15 -2 -49
-15 -69 -30 -42 -15 28 -14 101 1 143 l13 34 5 -39 5 -38 20 22z m428 43 c-7
-2 -19 -2 -25 0 -7 3 -2 5 12 5 14 0 19 -2 13 -5z m1686 -15 c-15 -30 -49 -67
-73 -80 -11 -6 3 15 29 46 53 61 62 68 44 34z m-2534 -62 c-26 -34 -23 -50 3
-24 17 17 16 -5 -2 -40 -17 -32 -73 -88 -81 -80 -3 3 6 19 20 36 31 38 32 44
0 32 -37 -14 -31 2 26 65 56 61 77 68 34 11z m-406 -37 c-21 -116 -41 -149
-52 -86 -7 47 1 80 29 112 13 15 24 33 24 38 0 6 3 8 6 5 3 -3 0 -34 -7 -69z
m534 31 c3 -11 2 -18 -3 -15 -4 3 -10 14 -13 25 -3 11 -2 18 3 15 4 -3 10 -14
13 -25z m-379 -26 c10 -25 -1 -29 -14 -5 -6 12 -7 21 -1 21 5 0 12 -7 15 -16z
m-224 -37 c0 -10 -4 -15 -10 -12 -5 3 -10 18 -10 33 0 21 2 24 10 12 5 -8 10
-23 10 -33z m595 -15 c-11 -3 -13 -16 -9 -55 5 -48 4 -51 -10 -33 -9 11 -16
25 -16 32 0 7 -3 20 -7 30 -4 12 -3 15 5 10 8 -5 12 4 12 31 l0 38 20 -25 c15
-20 16 -26 5 -28z m-381 -11 c-6 -6 -24 19 -24 34 1 6 7 1 15 -9 8 -11 12 -22
9 -25z m-334 -13 c0 -10 -4 -18 -10 -18 -5 0 -10 15 -10 33 0 24 3 28 10 17 5
-8 10 -23 10 -32z m330 -40 c0 -15 -18 -8 -23 10 -2 9 -8 26 -12 37 -4 11 2 7
14 -10 11 -16 21 -33 21 -37z m-410 42 c0 -5 -5 -10 -11 -10 -5 0 -7 5 -4 10
3 6 8 10 11 10 2 0 4 -4 4 -10z m770 -102 c0 -5 -4 -8 -9 -8 -8 0 -13 10 -36
75 -4 11 4 2 19 -20 14 -22 26 -43 26 -47z m-780 52 c0 -5 -5 -10 -11 -10 -5
0 -7 5 -4 10 3 6 8 10 11 10 2 0 4 -4 4 -10z m410 -44 c0 -12 -5 -7 -19 24
-11 24 -11 24 3 6 9 -11 16 -24 16 -30z m677 -8 c-2 -13 -4 -5 -4 17 -1 22 1
32 4 23 2 -10 2 -28 0 -40z m-467 38 c0 -2 -8 -10 -17 -17 -16 -13 -17 -12 -4
4 13 16 21 21 21 13z m340 -27 c0 -6 -4 -7 -10 -4 -5 3 -10 11 -10 16 0 6 5 7
10 4 6 -3 10 -11 10 -16z m-958 -11 c-7 -7 -12 -8 -12 -2 0 14 12 26 19 19 2
-3 -1 -11 -7 -17z m1087 -96 c1 -19 -3 -31 -9 -27 -6 4 -7 -11 -4 -39 9 -61
-5 -59 -46 7 -31 50 -31 51 -5 27 l27 -25 -8 30 c-4 17 -13 43 -21 58 -14 27
-13 28 6 18 30 -16 32 -14 26 32 l-6 42 20 -45 c11 -25 20 -60 20 -78z m-339
57 c0 -6 -4 -7 -10 -4 -5 3 -10 11 -10 16 0 6 5 7 10 4 6 -3 10 -11 10 -16z
m200 -56 c0 -7 -2 -13 -4 -13 -6 0 -46 69 -46 78 1 12 50 -52 50 -65z m-10
-40 c0 -24 -15 -13 -39 30 l-24 42 32 -29 c17 -17 31 -36 31 -43z"/>
<path d="M1611 3058 l12 -23 -24 20 c-27 22 -20 12 37 -59 29 -37 34 -46 17
-37 -13 6 -27 20 -33 31 -11 21 -48 45 -56 37 -3 -3 7 -18 21 -33 15 -16 41
-45 59 -64 39 -43 61 -53 170 -79 100 -24 139 -19 79 11 l-38 19 43 -6 c23 -3
54 -2 68 1 26 7 25 7 -12 20 -22 8 -51 14 -67 14 -33 0 -90 35 -137 85 -33 34
-116 85 -140 85 -7 0 -7 -7 1 -22z m126 -73 c32 -30 52 -54 45 -55 -8 0 -39
25 -70 55 -32 30 -52 55 -45 55 7 0 38 -25 70 -55z m-5 -47 c27 -26 48 -49 48
-52 0 -2 -9 -2 -20 1 -21 6 -110 100 -110 117 0 11 23 -7 82 -66z"/>
<path d="M2121 3052 c-10 -19 -70 -62 -86 -62 -5 0 7 15 26 33 20 17 28 27 20
21 -39 -28 -90 -48 -141 -54 l-55 -6 43 -14 c36 -11 50 -11 99 3 32 8 60 14
62 11 2 -2 -16 -13 -40 -25 l-44 -20 38 5 c50 7 62 18 81 73 17 49 15 68 -3
35z"/>
<path d="M1978 2843 c7 -3 16 -2 19 1 4 3 -2 6 -13 5 -11 0 -14 -3 -6 -6z"/>
<path d="M816 3108 c-3 -68 -9 -141 -12 -164 -5 -34 -3 -43 13 -49 36 -15 83
-23 83 -14 0 5 -6 9 -14 9 -15 0 -56 45 -56 61 0 5 9 0 20 -11 18 -18 50 -28
50 -15 0 3 -12 16 -27 29 -26 23 -27 29 -33 145 -4 66 -9 123 -12 126 -3 3 -8
-50 -12 -117z"/>
<path d="M981 2794 c0 -11 3 -14 6 -6 3 7 2 16 -1 19 -3 4 -6 -2 -5 -13z"/>
<path d="M1222 2763 c-1 -12 -13 -34 -26 -50 -12 -15 -29 -39 -36 -52 l-12
-24 29 21 c46 33 55 48 50 89 -2 21 -4 28 -5 16z"/>
<path d="M974 2725 c4 -16 19 -49 34 -74 15 -25 35 -65 44 -90 l16 -46 1 42
c1 33 -6 51 -34 87 -19 25 -37 57 -41 71 -3 14 -11 28 -17 32 -6 4 -7 -4 -3
-22z"/>
<path d="M2675 2373 c-11 -3 -23 -10 -27 -17 -6 -8 -8 -8 -8 1 0 10 -6 10 -25
1 -37 -17 -31 -44 30 -137 69 -107 84 -168 59 -244 -9 -28 -27 -66 -40 -84
-13 -17 -24 -36 -24 -42 0 -23 -31 -9 -52 24 -27 41 -39 42 -128 14 -116 -36
-150 -75 -150 -172 0 -68 16 -103 76 -170 47 -53 64 -107 64 -206 0 -51 -3
-61 -30 -86 -34 -32 -37 -30 -15 11 9 17 15 56 15 92 l0 64 -33 -44 c-29 -38
-32 -47 -24 -74 23 -76 -22 -154 -88 -154 -25 0 -38 -5 -42 -17 -16 -45 -45
-73 -74 -73 -25 0 -29 -4 -29 -28 0 -36 -26 -72 -52 -72 -13 0 -18 -5 -15 -14
14 -37 -57 -98 -96 -83 -9 3 -18 -7 -25 -27 -15 -42 -49 -61 -84 -47 -22 8
-27 6 -37 -16 -11 -24 -15 -25 -60 -20 -43 5 -51 3 -72 -19 -26 -28 -64 -31
-98 -8 -21 15 -23 15 -37 -5 -17 -24 -63 -28 -93 -9 -15 9 -22 7 -40 -9 l-21
-19 83 -23 c45 -12 105 -34 132 -48 46 -24 48 -24 31 -5 -10 12 -35 26 -55 33
-20 6 -40 16 -46 22 -7 7 -5 8 5 5 19 -7 179 7 205 17 l20 8 -20 -23 -20 -23
27 5 c24 4 26 3 17 -13 -12 -23 9 -27 30 -6 11 10 11 8 2 -10 -7 -13 -8 -23
-2 -23 5 0 12 6 15 13 4 6 4 -3 1 -22 -5 -32 -4 -33 25 -29 l30 5 -21 -23
c-24 -26 -21 -27 64 -39 26 -3 47 -10 47 -14 0 -17 -66 -54 -106 -59 -24 -2
-41 -8 -38 -13 8 -14 81 -11 153 6 36 8 89 20 116 27 84 19 131 44 188 100 51
51 56 61 95 184 23 71 52 145 65 166 78 128 214 257 350 334 48 27 120 79 159
115 l71 67 -6 128 c-3 71 -12 152 -20 179 -11 35 -16 42 -16 25 -1 -22 -3 -23
-12 -7 -12 21 -6 189 9 262 12 57 16 315 4 330 -6 10 -62 38 -62 32 0 -2 9
-20 20 -42 25 -48 25 -64 3 -85 -17 -15 -19 -12 -40 56 -21 65 -26 72 -54 78
-68 13 -106 7 -124 -20 -9 -14 -19 -23 -23 -20 -3 4 0 12 6 18 25 25 13 32
-33 21z m225 -98 c10 -35 10 -49 1 -58 -8 -8 -11 -2 -11 25 0 20 -4 48 -10 63
-5 14 -6 24 -1 21 4 -3 14 -26 21 -51z m-28 -35 c3 -16 1 -30 -4 -30 -4 0 -8
14 -8 30 0 17 2 30 4 30 2 0 6 -13 8 -30z m-134 -75 c-3 -3 -9 2 -12 12 -6 14
-5 15 5 6 7 -7 10 -15 7 -18z m45 -165 c8 -79 -4 -134 -34 -166 -28 -30 -41
-31 -30 -1 22 59 31 97 31 138 0 64 11 124 20 108 4 -8 10 -43 13 -79z m118
-37 c-8 -14 -10 -8 -11 29 0 67 14 96 18 36 2 -26 -2 -56 -7 -65z m-316 -113
c10 -11 16 -20 13 -20 -3 0 -13 9 -23 20 -10 11 -16 20 -13 20 3 0 13 -9 23
-20z m201 -57 c-10 -19 -15 -22 -16 -11 0 9 5 20 10 23 6 3 11 16 11 28 1 16
3 17 6 5 2 -9 -3 -29 -11 -45z m124 -21 c0 -18 9 -65 20 -104 21 -77 27 -173
10 -183 -6 -4 -10 13 -10 44 0 28 -7 70 -14 93 -13 36 -37 189 -36 223 1 26
29 -44 30 -73z m-386 52 c3 -9 2 -22 -2 -30 -7 -13 -10 -13 -20 -1 -12 15 -7
47 8 47 4 0 11 -7 14 -16z m286 -76 c0 -21 -3 -29 -10 -22 -5 5 -7 19 -4 32 9
31 14 27 14 -10z m-365 -64 c0 -75 -1 -82 -12 -57 -15 36 -16 71 -2 112 6 17
12 31 12 31 1 0 2 -39 2 -86z m-44 6 l-9 -45 -1 42 c-1 44 11 91 16 63 2 -8
-1 -35 -6 -60z m82 -32 c3 -18 10 -51 15 -72 17 -62 1 -66 -19 -5 -19 58 -25
124 -10 115 5 -3 11 -20 14 -38z m432 -148 c-1 -36 -5 -73 -11 -83 -7 -13 -10
6 -9 70 0 49 -3 102 -7 118 -7 29 -6 28 10 -5 10 -22 17 -59 17 -100z m-30
-45 c-4 -33 -15 -64 -27 -77 -18 -21 -19 -21 -13 -3 4 11 11 45 17 75 6 30 13
62 15 70 10 30 15 -11 8 -65z m-80 -95 c-22 -43 -29 -33 -7 12 9 19 18 32 20
27 2 -4 -4 -22 -13 -39z m-306 -100 c-21 -66 -31 -58 -24 20 9 98 16 115 26
60 6 -29 5 -58 -2 -80z m275 98 c-8 -27 -44 -75 -44 -60 0 12 40 82 47 82 2 0
1 -10 -3 -22z m-249 -153 c-12 -32 -14 -34 -10 -10 3 17 9 50 13 75 7 44 7 44
10 10 1 -19 -4 -53 -13 -75z m26 -31 c-5 -16 -10 -21 -10 -12 -1 18 10 51 15
45 2 -1 -1 -16 -5 -33z m-361 -219 c-21 -25 -32 -17 -13 9 10 13 20 20 21 15
2 -5 -2 -16 -8 -24z m34 -49 c-6 -25 -24 -37 -24 -15 0 15 21 52 26 46 3 -3 2
-16 -2 -31z m-99 -55 c-7 -23 -25 -29 -25 -8 0 14 21 39 28 33 2 -3 1 -14 -3
-25z m35 -48 c0 -19 -3 -24 -10 -17 -6 6 -8 18 -4 27 9 24 14 21 14 -10z
m-107 -36 l22 6 -22 -23 c-20 -22 -22 -22 -39 -6 -14 15 -15 19 -3 27 8 4 15
5 17 0 2 -5 13 -7 25 -4z m20 -49 c-13 -12 -26 -18 -30 -14 -4 4 1 14 11 22
31 22 43 17 19 -8z m-123 1 c0 -16 -71 -79 -82 -73 -16 10 -8 20 27 37 20 9
38 24 41 32 7 18 14 20 14 4z m-70 -24 c-13 -16 -40 -21 -40 -7 0 10 42 32 49
26 2 -2 -2 -10 -9 -19z m70 -50 c-25 -27 -50 -33 -50 -12 0 12 60 47 69 40 3
-2 -6 -14 -19 -28z m5 -35 c-10 -11 -22 -17 -28 -13 -6 4 -3 12 8 20 28 20 41
16 20 -7z"/>
<path d="M3446 2191 c-7 -11 7 -23 62 -50 53 -27 54 -14 3 27 -41 33 -56 38
-65 23z"/>
<path d="M972 2117 c-6 -7 -19 -42 -28 -78 -21 -82 -26 -87 -23 -20 3 47 0 56
-20 70 -22 14 -25 14 -45 -11 -11 -14 -26 -33 -31 -43 -8 -14 -10 -11 -10 16
0 27 -4 34 -20 34 -30 0 -45 -42 -45 -132 0 -75 2 -83 19 -83 24 0 42 22 51
63 6 25 8 27 9 8 1 -21 5 -23 34 -17 17 3 57 8 87 11 102 11 124 19 130 45 l6
25 8 -23 c6 -18 13 -22 29 -18 12 3 41 6 65 6 40 0 42 1 43 33 l2 32 10 -36
c9 -33 14 -37 51 -42 23 -3 49 -8 59 -12 14 -6 17 -1 18 26 l1 34 12 -40 c10
-31 19 -41 44 -47 17 -5 34 -13 37 -18 11 -18 42 -11 53 13 9 17 11 18 9 3 -1
-13 12 -24 50 -41 51 -23 52 -23 58 -4 4 11 3 45 -1 76 -8 70 -41 111 -74 93
-12 -6 -24 -20 -28 -31 -7 -18 -10 -16 -25 16 -21 45 -37 51 -91 33 -43 -14
-43 -14 -59 14 -13 22 -23 28 -49 28 -19 0 -43 -7 -54 -14 -19 -13 -24 -12
-57 11 -32 23 -38 24 -63 11 -19 -9 -31 -26 -39 -53 l-12 -40 -9 55 -9 55 -41
3 c-26 2 -45 -2 -52 -11z"/>
<path d="M1681 1962 c-5 -10 -11 -40 -13 -67 l-3 -48 80 -49 c46 -27 92 -48
108 -48 16 0 42 -8 57 -17 24 -14 31 -14 44 -4 22 19 22 143 0 165 -23 23 -34
20 -34 -11 0 -15 -5 -41 -12 -60 -11 -29 -10 -35 7 -47 22 -16 15 -32 -10 -23
-11 5 -15 21 -15 56 0 28 -7 69 -16 91 -14 35 -20 41 -43 38 -21 -3 -27 -10
-35 -48 -8 -35 -11 -39 -13 -20 -2 14 -8 44 -15 68 -10 39 -13 42 -44 42 -22
0 -37 -6 -43 -18z m125 -168 c17 -14 17 -15 1 -10 -10 3 -23 6 -28 6 -5 0 -9
5 -9 10 0 14 13 12 36 -6z"/>
<path d="M1422 1773 c14 -52 47 -100 113 -163 32 -30 68 -77 81 -105 l23 -50
0 38 c1 53 -20 89 -103 176 -40 42 -78 91 -85 109 -19 47 -43 43 -29 -5z"/>
<path d="M1485 1488 c-14 -21 -14 -24 1 -35 9 -7 25 -31 35 -54 19 -41 34 -46
52 -18 7 11 0 31 -23 72 -17 31 -36 57 -40 57 -5 0 -16 -10 -25 -22z"/>
<path d="M1607 1426 c-4 -10 -7 -26 -7 -37 0 -10 -13 -28 -30 -41 -16 -12 -30
-29 -30 -37 -1 -9 -14 12 -30 46 -33 68 -41 76 -64 67 -17 -7 -22 -54 -6 -54
6 0 10 5 10 10 0 6 5 10 10 10 6 0 10 -7 10 -16 0 -13 -8 -15 -36 -12 -29 3
-39 0 -51 -18 -13 -21 -13 -25 9 -47 12 -14 37 -32 53 -40 27 -15 28 -16 8
-17 -24 0 -31 -14 -13 -25 12 -7 14 -52 2 -58 -4 -3 -21 24 -37 59 -17 35 -33
64 -36 64 -4 0 -19 -16 -34 -36 -24 -32 -26 -38 -15 -65 7 -16 22 -37 34 -47
19 -15 24 -29 29 -81 1 -8 -12 -24 -29 -36 -26 -17 -29 -24 -21 -42 6 -14 5
-27 -2 -39 -8 -15 -10 -16 -11 -3 0 8 -14 28 -31 45 -17 16 -35 40 -41 54 -7
20 -11 22 -17 10 -32 -60 -7 -119 52 -121 30 -1 30 -1 7 -8 -58 -16 64 -39
144 -27 43 7 46 9 40 32 -4 14 -2 24 5 24 6 0 11 -9 11 -21 0 -18 4 -20 26
-15 15 4 40 9 58 12 57 10 59 12 42 36 -9 12 -16 41 -15 63 l1 40 14 -30 15
-30 -6 28 c-8 42 8 32 28 -17 10 -25 26 -51 34 -58 15 -12 15 -11 5 9 -7 12
-12 35 -12 52 0 17 -5 31 -11 31 -5 0 -19 19 -29 43 -15 33 -18 56 -13 95 8
72 23 65 24 -10 l1 -63 10 50 c10 52 28 84 28 50 0 -30 15 -6 34 54 17 52 14
80 -4 51 -7 -11 -10 -7 -10 17 0 43 -16 50 -25 10 l-8 -32 -6 45 -6 45 -18
-32 c-10 -18 -19 -33 -22 -33 -2 0 -1 15 1 33 3 17 1 43 -4 56 -7 21 -10 22
-15 7z m-237 -185 c0 -6 -4 -13 -10 -16 -5 -3 -10 1 -10 9 0 9 5 16 10 16 6 0
10 -4 10 -9z m233 -80 c10 -50 11 -71 3 -68 -6 2 -15 13 -21 25 -5 11 -17 23
-27 25 -14 4 -18 15 -18 47 0 25 4 39 10 35 6 -3 10 -13 10 -21 0 -8 5 -14 10
-14 6 0 10 12 10 27 0 43 9 22 23 -56z m-83 24 c0 -14 -4 -25 -9 -25 -4 0 -6
11 -3 25 2 14 6 25 8 25 2 0 4 -11 4 -25z m10 -124 c0 -16 2 -44 5 -62 l5 -34
-14 30 c-17 34 -21 95 -6 95 6 0 10 -13 10 -29z m-51 -46 c0 -5 -4 -3 -9 5 -5
8 -9 22 -9 30 0 16 17 -16 18 -35z m103 -8 c19 -60 15 -72 -13 -38 -18 22 -27
91 -11 91 4 0 14 -24 24 -53z m-166 -53 c-4 -9 -9 -15 -11 -12 -3 3 -3 13 1
22 4 9 9 15 11 12 3 -3 3 -13 -1 -22z m44 9 c0 -22 -17 -50 -25 -42 -6 7 11
59 20 59 3 0 5 -8 5 -17z"/>
<path d="M2181 1297 c-18 -20 -19 -26 -8 -35 10 -9 16 -9 25 0 9 9 12 6 12
-12 0 -39 14 -52 51 -48 31 3 34 6 37 37 5 54 -5 81 -31 81 -13 0 -28 -5 -35
-12 -9 -9 -12 -9 -12 0 0 19 -14 14 -39 -11z"/>
<path d="M2093 1228 c-13 -6 -23 -17 -23 -25 0 -15 16 -17 25 -3 3 6 15 10 26
10 l20 0 -20 -26 c-19 -24 -19 -27 -4 -60 28 -58 73 -33 73 39 -1 70 -37 94
-97 65z"/>
<path d="M2026 1141 c-19 -20 -26 -36 -22 -47 6 -14 4 -15 -9 -4 -14 11 -21
11 -48 -5 -62 -35 -76 -54 -71 -94 l5 -36 -21 27 -21 28 -42 -33 c-23 -17 -43
-33 -45 -33 -2 -1 4 -16 12 -33 22 -42 20 -47 -8 -14 -21 24 -27 26 -43 15
-10 -6 -28 -16 -40 -22 -30 -13 -29 -25 8 -71 36 -46 70 -52 87 -14 10 22 18
25 60 25 45 0 49 2 63 32 11 26 21 34 51 39 59 9 80 34 76 91 -2 27 -2 48 0
48 1 0 7 -11 12 -25 20 -54 60 -18 60 55 0 34 -22 100 -33 100 -2 0 -16 -13
-31 -29z"/>
<path d="M1284 1148 c-50 -67 -40 -112 26 -123 55 -9 72 6 43 37 -11 13 -29
40 -40 61 -15 29 -22 35 -29 25z"/>
<path d="M1211 898 c0 -7 4 -22 9 -33 8 -18 9 -17 9 7 1 15 -3 30 -9 33 -5 3
-10 0 -9 -7z"/>
<path d="M1553 847 l-33 -12 20 -32 c22 -37 48 -53 85 -53 35 0 42 25 17 68
-23 41 -41 47 -89 29z"/>
<path d="M1270 832 c0 -10 6 -24 13 -32 18 -23 82 -70 95 -70 18 0 14 28 -6
48 -10 10 -21 25 -24 33 -3 8 -22 20 -42 26 -31 10 -36 9 -36 -5z"/>
<path d="M1422 773 c50 -51 74 -61 96 -39 14 14 14 19 4 34 -7 9 -15 24 -18
32 -4 11 -21 15 -65 16 l-60 1 43 -44z"/>
<path d="M1657 583 c-16 -4 -16 -7 3 -39 12 -18 19 -38 16 -43 -4 -5 -2 -12 4
-16 5 -3 10 1 10 11 0 14 7 16 36 11 35 -6 35 -5 22 15 -22 33 -71 65 -91 61z"/>
<path d="M1737 429 c7 -7 15 -10 18 -7 3 3 -2 9 -12 12 -14 6 -15 5 -6 -5z"/>
<path d="M1778 413 c7 -3 16 -2 19 1 4 3 -2 6 -13 5 -11 0 -14 -3 -6 -6z"/>
</g>
</svg>
